<svg xmlns="http://www.w3.org/2000/svg"  viewBox="0 0 64 64" width="64px" height="64px" baseProfile="basic"><linearGradient id="XGAQQ9mWg2-5fuLkr0opDa" x1="31.995" x2="31.995" y1="6.29" y2="59" gradientUnits="userSpaceOnUse"><stop offset="0" stop-color="#6dc7ff"/><stop offset="1" stop-color="#e6abff"/></linearGradient><path fill="url(#XGAQQ9mWg2-5fuLkr0opDa)" d="M43.14,32.08c-1.05,0.53-2.02,0.88-2.91,1.09c1.76,2.13,3.39,5.21,3.39,9.34	c0,5.14-6.57,10.37-11.19,10.37c-7.72,0-8.28-9.09-8.28-9.09l1.42-4.06l-9,1.28c0,0-1.29,0.8-1.29,2.32C15.29,51.94,23,59,32,59	c10.13,0,16.71-6.74,16.71-15.16C48.71,39.03,46.58,34.89,43.14,32.08z M32.71,30.66c3.81-1.85,9.58-5.75,9.58-12.32	c0-9.48-8.2-12.05-12.86-12.05c-13.104,0-14.134,13.34-14.15,13.55v0.07c-0.01,0.64,0.42,1.21,1.05,1.33l9.24,0.48	c0-2.57,2.821-4.318,6.43-3.72c0.987,0.163,4.63,1.141,5.14,3.72c0.25,1.266-6.43,5.14-12.86,6.43v5.14c0,0,2.58,2.58,7.72,2.58	c3.11,0,6.675-0.478,8.815-2.098C37.09,33.552,33.804,32.859,32.71,30.66z"/><linearGradient id="XGAQQ9mWg2-5fuLkr0opDb" x1="32" x2="32" y1="4" y2="60" gradientUnits="userSpaceOnUse"><stop offset="0" stop-color="#1a6dff"/><stop offset="1" stop-color="#c822ff"/></linearGradient><path fill="url(#XGAQQ9mWg2-5fuLkr0opDb)" d="M49.72,21.076C49.72,11.66,41.771,4,32,4c-4.69,0-8.082,1.77-9.859,2.863	c-4.588,2.939-7.45,7.641-7.853,12.894c-0.001,0.018-0.006,0.11-0.007,0.129c-0.027,1.148,0.759,2.13,1.871,2.335	c0.042,0.008,0.085,0.013,0.129,0.015l9.236,0.482c0.531,0.023,0.985-0.36,1.045-0.885c0.297-2.585,2.729-2.972,4.151-2.972	c3.548,0,4.938,2.062,5.345,2.864c-0.952,1.194-6.36,4.322-11.972,5.444c-0.467,0.093-0.804,0.504-0.804,0.98v5.145	c0,0.012,0.006,0.023,0.007,0.035c0.004,0.103,0.025,0.203,0.06,0.299c0.01,0.029,0.021,0.056,0.033,0.084	c0.049,0.105,0.109,0.205,0.193,0.289c0.117,0.117,2.929,2.865,8.424,2.865c1.587,0,3.188-0.198,3.974-0.335	c0.774,0.801,1.472,1.963,1.411,3.155C37.315,41.051,35.908,43.87,32,43.87c-4.012,0-5.419-4.264-5.477-4.443	c-0.146-0.468-0.613-0.762-1.096-0.691l-9.003,1.286c-0.138,0.02-0.27,0.068-0.388,0.142c-0.653,0.408-1.758,1.534-1.756,3.17	C14.288,52.368,22.402,60,32,60c10.261,0,17.708-6.798,17.708-16.165c0-4.457-1.725-8.53-4.881-11.592	C47.991,29.371,49.72,25.448,49.72,21.076z M25.283,28.956c5.729-1.341,12.861-4.978,12.861-7.236c0-0.107-0.018-0.214-0.052-0.316	c-0.062-0.185-1.58-4.542-7.379-4.542c-3.069,0-5.269,1.438-5.954,3.814l-8.286-0.433c-0.136-0.046-0.195-0.189-0.191-0.331	c0.353-4.613,2.872-8.746,6.89-11.334l0.005,0.008c0.544-0.305,2.602-1.301,6.251-1.301c4.405,0,11.861,2.329,11.861,11.057	c0,7.775-5.642,10.534-10.148,12.039c-1.303,0.424-3.713,1.178-5.858,1.676V28.956z M26.781,33.752	c1.792-0.459,3.807-1.076,5.382-1.599c0.741,0.651,2.301,1.726,4.846,2.118C36.395,34.426,31.004,35.791,26.781,33.752z M34.357,31.276c4.262-1.893,8.932-5.427,8.932-12.932c0-7.069-4.248-10.576-8.466-12.086c7.323,1.281,12.896,7.432,12.896,14.819	c0,4.141-1.784,7.816-5.023,10.349c-0.015,0.011-0.027,0.024-0.041,0.036c-0.002,0.002-0.005,0.002-0.008,0.005	c-0.045,0.039-1.136,0.954-3.628,0.954C36.773,32.42,35.277,31.824,34.357,31.276z M25.562,42.708	c0.114-0.096,0.234-0.139,0.346-0.166C27.02,44.126,28.936,45.87,32,45.87c4.879,0,7.254-3.556,7.383-6.081	c0.079-1.54-0.57-2.836-1.24-3.758c0.806-0.234,1.526-0.5,2.163-0.777c1.534,2.013,2.313,4.273,2.313,6.733	c0,6.455-5.917,9.893-10.188,9.893c-4.597,0-7.441-3.704-7.441-7.136C24.989,43.744,25.192,43.021,25.562,42.708z M47.708,43.835	C47.708,52.043,41.102,58,32,58c-8.514,0-15.713-6.717-15.719-14.669c-0.001-0.695,0.445-1.167,0.678-1.366l7.803-1.115	c-0.148,0.079-0.297,0.172-0.443,0.29c-0.883,0.713-1.33,1.925-1.33,3.602c0,4.394,3.609,9.136,9.441,9.136	c5.886,0,12.188-4.779,12.188-11.893c0-2.795-0.851-5.361-2.514-7.653c0.479-0.287,0.869-0.555,1.167-0.781	C46.128,36.251,47.708,39.864,47.708,43.835z"/></svg>